<svg width="60" height="60" viewBox="0 0 60 60" fill="none" xmlns="http://www.w3.org/2000/svg">
<path d="M26.828 9.172C26.0779 8.42212 25.0607 8.00085 24 8.00085C22.9393 8.00085 21.9221 8.42212 21.172 9.172L3.172 27.172C2.42212 27.9221 2.00085 28.9393 2.00085 30C2.00085 31.0607 2.42212 32.0779 3.172 32.828L21.172 50.828C21.9264 51.5566 22.9368 51.9598 23.9856 51.9507C25.0344 51.9416 26.0376 51.5209 26.7793 50.7793C27.5209 50.0376 27.9416 49.0344 27.9507 47.9856C27.9598 46.9368 27.5566 45.9264 26.828 45.172L16 34H54C55.0609 34 56.0783 33.5786 56.8284 32.8284C57.5786 32.0783 58 31.0609 58 30C58 28.9391 57.5786 27.9217 56.8284 27.1716C56.0783 26.4214 55.0609 26 54 26H16L26.828 14.828C27.5779 14.0779 27.9991 13.0607 27.9991 12C27.9991 10.9393 27.5779 9.92211 26.828 9.172Z" fill="black"/>
</svg>
