<svg width="180" height="180" viewBox="0 0 180 180" fill="none" xmlns="http://www.w3.org/2000/svg">
<rect width="180" height="180" rx="90" fill="#EEEEEE"/>
<path fill-rule="evenodd" clip-rule="evenodd" d="M70.3837 47.7875L60.2087 61.3542C59.675 62.0657 58.983 62.6432 58.1875 63.041C57.392 63.4388 56.5147 63.6458 55.6253 63.6458H53.3337C49.9908 63.6458 46.7849 64.9738 44.4212 67.3375C42.0574 69.7012 40.7295 72.9072 40.7295 76.25V122.083C40.7295 125.426 42.0574 128.632 44.4212 130.996C46.7849 133.36 49.9908 134.688 53.3337 134.688H126.667C130.01 134.688 133.216 133.36 135.579 130.996C137.943 128.632 139.271 125.426 139.271 122.083V76.25C139.271 72.9072 137.943 69.7012 135.579 67.3375C133.216 64.9738 130.01 63.6458 126.667 63.6458H124.375C123.486 63.6458 122.609 63.4388 121.813 63.041C121.018 62.6432 120.326 62.0657 119.792 61.3542L109.617 47.7875C109.041 47.019 108.293 46.3953 107.434 45.9657C106.575 45.5361 105.628 45.3125 104.667 45.3125H75.3337C73.3857 45.3125 71.5524 46.2292 70.3837 47.7875ZM90.0003 72.8125C87.1413 72.8125 84.3103 73.3756 81.669 74.4697C79.0276 75.5638 76.6276 77.1674 74.606 79.189C72.5844 81.2106 70.9808 83.6106 69.8867 86.252C68.7926 88.8934 68.2295 91.7243 68.2295 94.5833C68.2295 97.4423 68.7926 100.273 69.8867 102.915C70.9808 105.556 72.5844 107.956 74.606 109.978C76.6276 111.999 79.0276 113.603 81.669 114.697C84.3103 115.791 87.1413 116.354 90.0003 116.354C95.7743 116.354 101.312 114.06 105.395 109.978C109.477 105.895 111.771 100.357 111.771 94.5833C111.771 88.8094 109.477 83.2719 105.395 79.189C101.312 75.1062 95.7743 72.8125 90.0003 72.8125Z" fill="black"/>
</svg>
